<?xml version="1.0" standalone="no"?>
<!DOCTYPE svg PUBLIC "-//W3C//DTD SVG 20010904//EN"
 "http://www.w3.org/TR/2001/REC-SVG-20010904/DTD/svg10.dtd">
<svg version="1.0" xmlns="http://www.w3.org/2000/svg"
 width="4780.000000pt" height="1294.000000pt" viewBox="0 0 4780.000000 1294.000000"
 preserveAspectRatio="xMidYMid meet">
<metadata>
Created by potrace 1.16, written by Peter Selinger 2001-2019
</metadata>
<g transform="translate(0.000000,1294.000000) scale(0.100000,-0.100000)"
fill="#000000" stroke="none">
<path d="M5965 12844 c-348 -58 -668 -293 -825 -604 -125 -248 -4950 -10545
-4976 -10620 -146 -417 -39 -878 275 -1190 143 -142 325 -246 518 -297 120
-31 335 -42 465 -24 106 16 270 70 369 123 200 107 380 291 482 493 31 62
1080 2298 3227 6878 376 801 687 1454 691 1450 4 -5 278 -560 608 -1236 330
-675 604 -1234 609 -1243 6 -11 178 345 631 1311 343 729 620 1332 618 1338
-3 7 -327 697 -719 1533 -438 931 -734 1550 -764 1595 -60 91 -176 214 -263
280 -135 101 -329 183 -505 214 -108 18 -330 18 -441 -1z"/>
<path d="M11145 12844 c-308 -55 -594 -241 -761 -495 -30 -47 -606 -1263
-1504 -3177 -800 -1706 -1457 -3102 -1460 -3102 -3 0 -279 560 -614 1245 -335
685 -611 1245 -615 1245 -3 0 -270 -564 -594 -1253 l-587 -1253 3 -2529 2
-2530 23 -85 c111 -412 461 -718 915 -796 72 -12 148 -15 376 -12 269 4 292 6
382 30 301 81 543 257 695 506 23 37 922 1943 1998 4236 1076 2294 1959 4173
1963 4177 5 5 822 -1728 1818 -3849 995 -2121 1880 -4008 1967 -4192 94 -199
181 -368 214 -417 117 -172 326 -340 518 -414 169 -65 213 -73 426 -73 181 0
202 2 295 27 507 137 855 590 855 1112 0 128 -21 252 -64 375 -26 76 -4835
10340 -4972 10612 -56 112 -126 206 -221 300 -178 173 -395 281 -640 317 -99
15 -321 12 -418 -5z"/>
<path d="M15350 8850 l0 -1940 190 0 190 0 1 1173 c1 785 5 1157 11 1127 5
-25 14 -54 18 -65 5 -11 14 -47 20 -80 19 -104 22 -115 30 -115 4 0 10 -15 13
-32 14 -77 33 -157 40 -164 4 -4 7 -23 7 -41 0 -20 4 -32 10 -28 6 4 10 -8 10
-29 0 -19 4 -37 9 -40 4 -3 11 -29 15 -57 4 -28 14 -61 22 -74 8 -12 12 -29 9
-38 -4 -8 -2 -18 4 -22 6 -3 11 -19 11 -35 0 -16 4 -31 9 -34 5 -3 12 -31 16
-61 3 -30 12 -61 20 -68 7 -7 16 -38 20 -68 4 -30 11 -58 15 -64 4 -5 11 -32
15 -60 3 -27 13 -60 20 -71 8 -12 17 -45 21 -73 4 -28 11 -54 15 -57 5 -3 9
-18 9 -34 0 -16 5 -32 10 -35 6 -3 10 -19 10 -34 0 -15 4 -31 9 -37 8 -8 22
-70 38 -161 3 -18 9 -33 14 -33 5 0 9 -13 9 -29 0 -17 5 -33 11 -37 7 -4 9
-21 6 -40 -4 -21 -2 -32 4 -29 5 4 9 -7 9 -22 0 -16 5 -34 10 -39 11 -11 18
-34 27 -89 3 -16 9 -34 13 -40 5 -5 11 -36 15 -68 4 -32 14 -64 21 -72 7 -7
17 -38 20 -69 l7 -56 221 0 222 0 11 33 c6 17 14 55 18 82 4 28 13 57 20 65 7
8 16 42 20 75 4 33 10 65 15 70 4 6 10 35 14 65 4 30 13 61 19 69 11 12 19 49
43 189 4 17 10 32 14 32 4 0 10 15 13 33 3 17 11 61 17 97 6 36 15 73 20 82 6
10 10 32 10 48 0 17 4 29 9 26 5 -3 11 11 14 32 3 20 13 71 22 112 9 41 19 90
22 108 3 17 9 32 13 32 4 0 10 17 13 38 4 20 13 66 21 102 8 36 18 79 21 95 4
17 10 39 15 50 10 24 20 66 27 119 4 27 8 34 14 25 6 -9 9 0 7 28 -1 23 3 47
9 55 6 7 13 31 17 53 12 71 28 140 37 157 5 10 9 27 9 38 0 11 4 28 10 38 5 9
14 44 20 77 6 33 15 78 19 100 5 22 9 -470 10 -1092 l1 -1133 199 0 c172 0
200 2 205 16 3 9 6 882 6 1940 l0 1924 -193 0 -193 0 -13 -47 c-7 -27 -17 -59
-21 -73 -5 -14 -12 -47 -15 -74 -4 -27 -13 -59 -20 -70 -7 -12 -17 -47 -20
-79 -4 -31 -11 -59 -15 -62 -5 -3 -11 -32 -15 -64 -4 -34 -12 -62 -20 -65 -8
-3 -16 -32 -20 -75 -4 -39 -10 -71 -15 -71 -4 0 -11 -28 -14 -61 -4 -34 -13
-68 -21 -75 -7 -7 -16 -41 -20 -74 -4 -33 -11 -62 -15 -65 -4 -3 -11 -32 -15
-65 -4 -32 -13 -64 -20 -70 -7 -6 -16 -40 -20 -75 -3 -36 -11 -67 -16 -70 -5
-4 -9 -19 -9 -35 0 -16 -4 -32 -10 -35 -5 -3 -10 -19 -10 -35 0 -16 -4 -31 -9
-34 -5 -3 -12 -35 -16 -71 -3 -36 -11 -63 -16 -60 -5 4 -9 -12 -9 -34 0 -22
-4 -43 -10 -46 -5 -3 -10 -19 -10 -35 0 -16 -4 -31 -9 -34 -5 -3 -12 -34 -16
-68 -4 -35 -11 -65 -16 -68 -4 -3 -10 -17 -12 -30 -2 -14 -7 -32 -10 -40 -6
-18 -14 -54 -29 -135 -6 -33 -16 -63 -21 -66 -5 -4 -16 -38 -23 -75 -7 -38
-18 -96 -25 -129 -6 -33 -17 -67 -24 -75 -7 -8 -16 -43 -20 -78 -4 -34 -10
-64 -15 -67 -4 -3 -11 -34 -15 -69 -4 -38 -12 -66 -19 -69 -8 -3 -16 -32 -21
-71 -3 -36 -10 -68 -15 -71 -4 -3 -11 -32 -15 -65 -4 -32 -13 -64 -20 -70 -7
-6 -16 -40 -20 -75 -3 -36 -11 -65 -16 -65 -5 0 -9 -15 -9 -34 0 -19 -4 -38
-10 -41 -5 -3 -11 -16 -11 -28 -2 -23 -9 10 -30 123 -6 36 -18 72 -25 80 -7 8
-16 40 -20 70 -4 30 -10 60 -14 65 -4 6 -11 38 -15 73 -4 34 -13 68 -19 75 -7
7 -17 39 -24 72 -15 81 -23 117 -29 135 -3 8 -7 25 -9 38 -1 13 -7 29 -12 35
-6 7 -13 38 -17 70 -4 31 -11 60 -16 63 -5 3 -9 21 -9 40 0 19 -4 34 -10 34
-5 0 -10 16 -10 35 0 19 -4 35 -9 35 -5 0 -13 29 -16 65 -4 36 -11 68 -16 71
-5 3 -9 18 -9 34 0 16 -4 31 -9 34 -5 3 -11 20 -14 38 -20 114 -36 181 -45
187 -5 3 -13 33 -17 66 -4 33 -11 65 -15 70 -5 6 -11 36 -15 68 -4 32 -13 64
-20 71 -7 7 -16 39 -20 72 -4 32 -11 61 -15 64 -4 3 -11 37 -16 75 -6 42 -14
69 -21 68 -6 -1 -14 23 -18 62 -3 36 -10 67 -15 70 -4 2 -11 31 -15 62 -3 32
-12 67 -19 78 -7 11 -16 43 -20 70 -8 53 -23 109 -37 137 -5 10 -9 31 -9 48 0
16 -4 30 -9 30 -5 0 -12 29 -16 65 -3 36 -11 67 -16 70 -5 4 -9 19 -9 35 0 16
-4 32 -10 35 -5 3 -10 22 -10 41 0 19 -4 34 -9 34 -6 0 -13 31 -17 69 -4 42
-12 72 -19 75 -8 3 -16 32 -20 70 l-7 66 -219 0 -219 0 0 -1940z"/>
<path d="M18880 10756 c0 -18 -6 -39 -14 -45 -8 -7 -17 -43 -21 -89 -4 -42
-11 -81 -15 -87 -4 -5 -10 -28 -13 -50 -3 -22 -11 -60 -17 -85 -6 -25 -16 -79
-21 -120 -5 -41 -14 -83 -19 -92 -6 -10 -10 -33 -10 -52 0 -19 -4 -37 -9 -40
-5 -3 -11 -23 -15 -43 -3 -21 -11 -76 -18 -123 -7 -47 -18 -94 -24 -105 -7
-11 -15 -51 -19 -90 -4 -38 -11 -74 -15 -80 -4 -5 -11 -41 -15 -80 -4 -38 -12
-79 -19 -90 -10 -19 -18 -64 -47 -260 -6 -44 -17 -86 -23 -94 -6 -8 -16 -50
-23 -95 -26 -176 -35 -222 -48 -246 -7 -14 -16 -60 -20 -103 -4 -42 -11 -80
-16 -83 -5 -3 -9 -23 -9 -44 0 -21 -4 -41 -9 -44 -5 -3 -11 -23 -14 -43 -3
-21 -13 -78 -22 -128 -9 -49 -18 -106 -21 -125 -3 -19 -9 -44 -14 -55 -10 -23
-17 -59 -31 -165 -5 -41 -17 -90 -25 -108 -8 -18 -14 -40 -13 -50 1 -9 -1 -24
-4 -32 -6 -15 -13 -60 -24 -139 -3 -28 -8 -39 -13 -30 -5 7 -6 -6 -3 -29 4
-30 1 -47 -10 -60 -9 -10 -18 -48 -22 -92 -4 -41 -11 -79 -15 -85 -4 -5 -11
-44 -15 -85 -4 -41 -12 -81 -19 -89 -6 -8 -16 -48 -23 -90 -22 -146 -26 -166
-36 -172 -5 -4 -6 -12 -3 -18 5 -7 76 -11 225 -11 258 0 232 -16 262 165 5 33
16 71 24 86 7 14 17 50 21 80 4 29 10 59 14 64 4 6 11 38 15 72 4 34 13 67 21
74 8 7 14 30 14 55 l0 44 428 0 427 0 18 -77 c9 -43 17 -88 17 -100 0 -13 5
-23 10 -23 6 0 10 -15 10 -33 0 -18 4 -37 8 -42 5 -6 14 -37 21 -70 7 -33 16
-67 18 -75 9 -24 13 -42 19 -88 3 -23 10 -45 15 -48 5 -3 9 -16 9 -29 0 -57
-7 -55 237 -55 194 0 224 2 220 15 -4 8 -9 49 -13 90 -4 42 -13 82 -20 89 -7
7 -16 45 -20 85 -3 39 -10 74 -14 76 -5 3 -11 39 -15 81 -4 41 -13 81 -20 88
-7 6 -16 46 -20 87 -4 41 -10 79 -14 84 -3 6 -11 45 -17 89 -7 43 -16 81 -22
85 -5 3 -15 42 -21 86 -7 44 -14 97 -17 118 -4 20 -10 40 -15 43 -5 3 -9 22
-9 43 0 21 -3 41 -7 45 -5 4 -13 42 -20 84 -7 42 -17 97 -23 122 -7 25 -14 63
-17 85 -3 22 -9 45 -13 50 -5 6 -11 44 -15 85 -4 41 -13 80 -20 85 -6 6 -17
44 -23 85 -9 61 -39 246 -41 258 -1 2 -5 1 -10 -2 -4 -3 -11 26 -15 65 -3 39
-10 78 -15 87 -5 10 -12 52 -16 94 -4 46 -13 82 -21 89 -8 6 -14 23 -14 38 0
14 -4 42 -10 61 -5 19 -16 80 -24 134 -8 55 -19 102 -24 105 -5 3 -12 26 -15
51 -4 25 -14 81 -23 125 -8 44 -18 99 -21 123 -3 23 -9 42 -13 42 -4 0 -10 19
-13 43 -12 90 -32 196 -39 203 -5 4 -8 27 -8 51 0 24 -4 43 -9 43 -4 0 -11 19
-15 43 -12 86 -18 112 -26 132 -5 11 -11 36 -15 55 -14 82 -35 187 -41 213
l-6 27 -229 0 -229 0 0 -34z m251 -970 c5 -6 9 -26 9 -46 0 -20 3 -40 8 -44 4
-4 12 -44 19 -89 7 -45 17 -107 23 -137 6 -30 14 -73 17 -95 3 -22 9 -45 14
-50 4 -6 11 -46 15 -90 3 -44 12 -87 19 -95 8 -8 17 -52 20 -97 4 -46 11 -83
15 -83 4 0 11 -37 15 -82 4 -46 13 -94 21 -108 7 -14 18 -59 24 -100 6 -41 17
-118 25 -170 8 -52 14 -96 15 -98 0 -2 4 -1 9 2 5 3 12 -31 16 -77 4 -45 11
-86 15 -92 4 -5 11 -47 15 -93 4 -49 13 -88 21 -97 8 -7 14 -26 14 -42 0 -15
4 -43 9 -60 l9 -33 -383 -2 c-327 -3 -382 -1 -372 11 11 12 27 107 43 243 3
27 10 45 15 42 6 -3 9 11 8 33 -2 21 1 45 6 53 5 8 15 58 22 110 20 141 30
196 33 185 3 -11 12 46 30 185 6 47 15 93 20 102 6 10 10 36 10 58 0 22 4 40
9 40 5 0 12 21 14 48 17 148 30 220 42 247 13 27 20 65 42 233 3 23 8 42 13
42 4 0 5 12 2 27 -3 14 2 40 11 57 9 17 20 67 26 111 6 44 14 98 18 120 l8 40
3 -50 c2 -27 7 -54 13 -59z"/>
<path d="M20510 8850 l0 -1940 200 0 200 0 0 666 0 666 253 -6 c264 -5 351
-12 341 -27 -3 -5 4 -9 14 -9 26 0 122 -50 122 -63 0 -6 3 -7 6 -4 4 3 28 -15
53 -41 51 -52 101 -144 101 -185 0 -15 5 -27 10 -27 7 0 10 -168 10 -485 l0
-485 200 0 200 0 0 508 c-1 477 -6 586 -26 601 -5 3 -18 32 -28 63 -11 32 -27
66 -38 77 -10 11 -18 27 -18 36 0 8 -4 15 -8 15 -5 0 -14 10 -19 23 -15 31
-132 157 -164 176 l-27 17 61 64 c82 87 144 169 152 203 4 15 10 27 14 27 3 0
12 15 19 33 8 17 19 43 25 56 16 33 17 1371 1 1392 -6 8 -16 33 -24 57 -7 23
-17 42 -22 42 -4 0 -8 6 -8 13 -1 41 -95 176 -176 252 -70 66 -81 75 -94 75
-6 0 -9 4 -6 8 2 4 -21 21 -52 37 -31 16 -60 35 -64 41 -4 6 -24 15 -44 19
-20 3 -44 10 -53 15 -48 26 -134 30 -610 30 l-501 0 0 -1940z m935 1546 c8 -7
34 -17 60 -20 25 -4 45 -11 45 -17 0 -5 6 -9 14 -9 17 0 83 -55 121 -101 25
-32 65 -106 65 -124 0 -7 6 -15 13 -17 16 -6 18 -1215 2 -1226 -6 -4 -23 -34
-39 -66 -24 -51 -45 -77 -113 -136 -7 -6 -24 -15 -38 -20 -14 -5 -25 -14 -25
-19 0 -6 -23 -13 -50 -17 -28 -4 -53 -11 -56 -15 -3 -5 -124 -9 -270 -9 l-264
0 0 905 0 905 261 0 c208 0 263 -3 274 -14z"/>
<path d="M22680 8850 l0 -1940 195 0 195 0 0 868 0 868 56 67 c30 37 53 67 50
67 -3 0 8 13 24 29 17 15 30 31 30 35 0 11 73 96 82 96 4 0 8 -7 8 -16 0 -9 6
-30 14 -47 8 -18 20 -49 26 -70 6 -20 16 -35 21 -32 5 4 9 -2 9 -12 0 -10 7
-31 15 -46 8 -16 19 -46 25 -68 6 -22 15 -37 20 -34 6 4 10 -1 10 -10 0 -15
10 -43 44 -115 6 -14 13 -27 16 -30 3 -3 14 -31 25 -62 11 -32 23 -58 27 -58
4 0 8 -9 8 -20 0 -11 4 -20 9 -20 5 0 12 -13 16 -30 3 -16 15 -47 26 -69 10
-22 19 -45 19 -51 0 -5 4 -10 9 -10 5 0 12 -18 16 -40 4 -22 12 -43 19 -47 7
-5 25 -43 41 -85 16 -43 33 -78 37 -78 5 0 8 -6 8 -14 0 -8 7 -27 14 -43 18
-34 29 -63 30 -81 1 -7 6 -16 12 -20 9 -6 25 -36 28 -52 4 -17 40 -106 46
-110 4 -3 15 -27 25 -55 10 -27 22 -54 27 -60 4 -5 8 -17 8 -27 0 -10 3 -18 8
-18 7 0 32 -48 32 -62 0 -5 16 -42 35 -82 19 -41 35 -79 35 -85 0 -6 5 -11 10
-11 6 0 10 -6 10 -14 0 -7 7 -27 15 -42 8 -16 15 -37 15 -46 0 -10 5 -18 10
-18 6 0 10 -11 10 -25 0 -14 4 -25 8 -25 4 0 16 -20 26 -45 l19 -45 199 0 198
0 0 30 c0 17 -4 30 -9 30 -5 0 -12 18 -16 39 -4 22 -12 42 -19 44 -8 3 -16 22
-20 41 -4 20 -11 36 -16 36 -4 0 -11 18 -15 39 -4 22 -13 45 -21 51 -7 7 -16
27 -20 46 -3 19 -10 34 -14 34 -4 0 -13 20 -19 45 -6 25 -16 43 -21 40 -6 -3
-10 1 -10 10 0 10 -6 31 -14 48 -8 18 -20 49 -26 70 -6 20 -15 37 -20 37 -5 0
-12 14 -15 32 -4 18 -11 39 -16 48 -4 8 -14 30 -21 48 -7 17 -16 32 -20 32 -3
0 -9 18 -13 40 -4 22 -10 40 -13 40 -4 0 -13 15 -21 33 -7 17 -19 46 -26 62
-7 17 -16 40 -20 53 -3 12 -10 22 -15 22 -4 0 -11 18 -15 40 -4 22 -10 40 -15
40 -5 0 -11 18 -15 40 -4 22 -13 43 -20 47 -7 5 -25 45 -40 90 -16 45 -32 80
-37 77 -4 -3 -8 1 -8 9 0 8 -7 28 -15 43 -8 16 -15 36 -15 45 0 8 -5 20 -12
27 -7 7 -8 12 -3 12 4 0 1 8 -7 18 -8 9 -23 40 -33 67 -10 28 -22 54 -27 59
-4 6 -8 18 -8 28 0 10 -4 18 -10 18 -5 0 -10 7 -10 15 0 8 -4 23 -9 33 -33 61
-49 101 -43 107 3 3 2 9 -3 13 -15 10 -35 50 -35 67 0 8 -4 15 -10 15 -5 0
-10 6 -10 14 0 7 -7 27 -15 42 -8 16 -15 37 -15 46 0 9 -4 20 -10 23 -5 3 -10
15 -10 26 0 10 -3 19 -8 19 -8 0 -21 28 -48 108 -10 28 -22 52 -26 52 -4 0 -8
6 -8 14 0 7 -7 26 -14 42 -13 24 -13 31 1 55 9 15 20 26 24 23 4 -2 10 5 14
16 7 21 81 120 99 132 7 5 7 8 1 8 -6 0 -5 4 1 8 6 4 22 23 35 42 50 72 143
195 151 198 4 2 8 10 8 17 0 8 9 19 20 25 11 6 20 17 20 25 0 8 12 26 27 41
32 32 73 91 73 104 0 6 3 10 8 10 4 0 21 20 37 45 17 24 33 45 37 45 4 0 15
15 24 33 9 17 20 34 24 37 5 3 25 30 46 60 20 30 40 57 43 60 7 6 98 128 151
203 18 26 37 47 40 47 4 0 13 13 19 28 7 16 24 42 39 59 15 17 34 40 42 53 8
12 25 34 37 48 13 15 23 32 23 39 0 7 14 22 30 35 17 12 30 25 30 30 0 4 -115
8 -255 8 -140 0 -255 -4 -255 -8 0 -7 -59 -88 -105 -144 -7 -9 -22 -29 -32
-45 -9 -15 -20 -30 -23 -33 -3 -3 -21 -25 -40 -50 -19 -25 -38 -49 -43 -55
-24 -31 -74 -102 -88 -124 -9 -14 -22 -25 -28 -24 -6 2 -10 0 -9 -5 3 -10 -27
-63 -54 -94 -13 -14 -41 -52 -63 -83 -22 -32 -50 -69 -63 -84 -13 -14 -31 -38
-40 -53 -9 -16 -20 -28 -24 -28 -4 0 -8 -6 -8 -13 0 -8 -11 -24 -25 -37 -14
-13 -25 -27 -25 -32 0 -5 -13 -23 -30 -41 -16 -18 -30 -35 -30 -39 0 -5 -8
-16 -17 -26 -10 -10 -31 -37 -47 -60 -16 -23 -33 -42 -38 -42 -5 0 -6 -4 -3
-10 3 -5 2 -10 -4 -10 -5 0 -12 -8 -15 -18 -3 -9 -18 -32 -33 -49 -46 -51 -63
-76 -63 -90 0 -7 -4 -13 -9 -13 -5 0 -28 -27 -52 -60 -24 -34 -61 -84 -81
-111 l-38 -51 0 766 0 766 -195 0 -195 0 0 -1940z"/>
<path d="M25050 8850 l0 -1940 200 0 200 0 0 850 0 850 450 0 450 0 0 -850 0
-850 200 0 200 0 0 1940 0 1940 -200 0 -200 0 0 -905 0 -905 -450 0 -450 0 0
905 0 905 -200 0 -200 0 0 -1940z"/>
<path d="M27836 10714 c-4 -42 -13 -83 -20 -90 -8 -7 -17 -49 -21 -94 -4 -44
-11 -82 -15 -85 -4 -3 -11 -39 -15 -82 -4 -42 -13 -82 -20 -89 -7 -7 -16 -48
-20 -91 -4 -43 -10 -82 -15 -88 -4 -5 -11 -43 -14 -84 -4 -41 -14 -80 -21 -87
-7 -8 -16 -50 -20 -99 -4 -47 -11 -85 -16 -85 -5 0 -9 -13 -9 -30 0 -16 -7
-55 -16 -87 -9 -32 -20 -92 -25 -133 -5 -41 -14 -83 -19 -92 -6 -10 -10 -33
-10 -52 0 -19 -4 -38 -10 -41 -5 -3 -10 -24 -10 -45 0 -21 -4 -41 -9 -44 -4
-3 -11 -40 -15 -83 -4 -43 -11 -82 -15 -88 -8 -10 -15 -40 -28 -130 -3 -22 -9
-44 -13 -50 -4 -5 -11 -44 -15 -85 -3 -41 -11 -78 -17 -81 -5 -3 -14 -42 -20
-85 -5 -43 -14 -88 -18 -99 -5 -11 -12 -51 -15 -89 -4 -38 -13 -75 -20 -82 -7
-7 -16 -49 -20 -94 -4 -44 -11 -82 -15 -85 -4 -3 -11 -41 -15 -85 -4 -44 -13
-84 -20 -90 -7 -6 -16 -45 -20 -88 -4 -42 -10 -81 -15 -87 -4 -5 -11 -44 -15
-85 -3 -41 -12 -81 -18 -89 -7 -8 -17 -50 -24 -95 -18 -119 -23 -149 -33 -171
-9 -21 -14 -47 -30 -165 -6 -41 -15 -83 -20 -92 -6 -10 -10 -33 -10 -51 0 -18
-4 -37 -9 -42 -5 -6 -11 -34 -14 -62 l-6 -53 219 0 c207 0 220 1 230 19 5 11
10 31 10 45 0 14 5 26 11 26 6 0 9 12 8 28 -2 15 1 33 6 41 5 8 15 49 22 90
21 116 30 157 33 146 1 -5 6 8 11 30 16 79 29 151 35 183 l5 32 429 0 430 0 0
-30 c0 -16 5 -30 10 -30 6 0 10 -14 10 -30 0 -17 4 -38 10 -48 9 -16 25 -95
37 -174 3 -21 9 -38 13 -38 8 0 13 -17 32 -127 7 -39 16 -75 21 -79 4 -4 7
-23 7 -41 0 -20 4 -32 10 -28 6 3 10 1 10 -4 0 -8 72 -11 220 -11 l220 0 -7
48 c-3 26 -9 54 -14 62 -4 9 -11 48 -14 88 -4 40 -12 75 -16 78 -5 3 -9 20 -9
39 0 19 -4 36 -9 39 -9 6 -11 17 -33 169 -7 48 -18 91 -25 95 -6 4 -15 41 -18
82 -4 41 -11 80 -15 85 -5 6 -11 42 -15 80 -4 39 -13 79 -20 91 -7 11 -16 50
-20 87 -4 37 -11 69 -15 72 -4 3 -11 41 -15 85 -4 45 -13 87 -20 94 -7 7 -16
44 -20 82 -4 38 -11 74 -15 79 -4 6 -11 43 -15 83 -4 40 -13 78 -19 85 -7 7
-18 50 -25 97 -21 148 -23 160 -32 166 -5 3 -9 23 -9 45 0 21 -4 39 -9 39 -5
0 -13 36 -17 80 -3 44 -11 83 -15 86 -5 3 -9 20 -9 39 0 19 -4 37 -10 40 -5 3
-10 24 -10 45 0 21 -4 41 -9 44 -5 3 -12 39 -16 78 -4 40 -12 82 -18 93 -12
22 -13 25 -23 108 -4 31 -10 57 -14 57 -4 0 -11 36 -14 80 -4 44 -13 86 -20
93 -12 12 -18 43 -49 255 -7 45 -17 86 -23 90 -6 4 -16 41 -22 82 -31 206 -40
252 -49 258 -5 4 -13 34 -17 67 -4 33 -11 74 -16 90 -5 17 -14 63 -20 102 -7
40 -16 75 -21 79 -5 3 -9 14 -9 25 0 18 -9 19 -234 19 l-233 0 -7 -76z m277
-1017 c7 -54 18 -102 24 -105 9 -7 18 -57 46 -260 7 -51 18 -96 24 -100 6 -4
13 -25 16 -47 22 -166 47 -309 55 -314 5 -3 12 -24 15 -46 3 -22 10 -78 17
-125 6 -47 15 -93 21 -102 5 -10 9 -33 9 -51 0 -18 4 -37 9 -42 5 -6 11 -28
15 -50 21 -155 32 -214 39 -221 4 -4 7 -29 7 -56 0 -27 4 -47 9 -44 5 3 12
-18 15 -47 4 -28 10 -70 13 -92 3 -22 9 -44 14 -49 31 -34 14 -35 -369 -38
l-379 -3 5 45 c2 25 9 53 13 62 5 9 9 33 9 52 0 20 4 36 9 36 5 0 11 24 15 53
10 86 17 131 23 147 3 8 5 23 4 34 -2 10 4 37 13 60 8 22 20 77 26 121 6 44
13 98 16 120 4 22 10 44 15 50 5 5 9 28 9 50 0 23 3 45 8 49 6 7 24 115 38
238 3 27 9 46 13 43 5 -2 14 35 21 83 6 48 17 114 22 147 6 33 13 82 15 109 3
29 8 44 13 36 4 -7 13 26 19 76 7 49 17 116 22 149 6 33 13 81 16 107 3 27 9
45 14 42 5 -3 10 14 10 38 l2 43 8 -50 c5 -27 14 -94 22 -148z"/>
<path d="M29450 8850 l0 -1940 195 0 195 0 2 1148 c0 631 3 1131 5 1112 3 -19
8 -39 13 -45 4 -5 11 -36 15 -68 4 -32 13 -61 20 -63 7 -3 16 -30 20 -61 4
-31 11 -63 16 -72 5 -9 12 -43 17 -76 5 -35 13 -59 19 -58 7 1 14 -22 18 -57
4 -33 10 -62 15 -65 4 -3 11 -30 15 -60 3 -30 12 -61 19 -68 11 -11 27 -74 43
-164 3 -18 9 -33 14 -33 5 0 9 -16 9 -35 0 -19 4 -35 8 -35 7 0 20 -53 38
-158 4 -18 10 -35 15 -38 5 -3 9 -18 9 -35 0 -16 4 -29 9 -29 5 0 11 -21 15
-48 3 -26 15 -71 26 -100 11 -29 20 -61 20 -72 0 -11 4 -28 9 -38 5 -9 14 -44
20 -76 6 -33 15 -62 19 -65 8 -6 16 -37 46 -181 8 -35 19 -66 25 -68 6 -2 11
-12 11 -23 0 -11 7 -45 15 -77 8 -31 20 -83 26 -115 6 -31 14 -55 19 -52 4 3
10 -10 13 -28 4 -17 9 -47 13 -64 l6 -33 223 0 223 0 7 47 c4 25 13 56 20 67
7 12 16 46 20 76 4 30 11 60 15 65 4 6 11 37 15 69 4 33 13 65 20 72 7 7 16
39 20 71 4 32 10 63 15 68 4 6 11 37 15 69 4 33 13 65 20 72 7 7 16 39 20 71
4 32 10 63 15 68 4 6 10 34 14 64 4 29 13 63 20 75 8 11 17 48 21 80 4 33 10
66 15 75 4 9 13 41 20 71 7 30 16 60 20 65 4 6 11 38 15 73 4 34 11 62 16 62
5 0 9 15 9 34 0 19 5 38 10 41 6 3 10 19 10 35 0 16 4 31 9 34 4 3 11 33 15
67 4 34 11 69 16 78 4 9 13 36 20 61 6 25 15 59 20 75 5 17 12 53 15 80 4 28
13 55 19 60 7 6 17 39 23 75 23 128 40 211 47 217 3 3 6 -498 6 -1115 l0
-1122 200 0 200 0 0 1940 0 1940 -190 0 c-181 0 -190 -1 -190 -19 0 -11 -4
-23 -10 -26 -5 -3 -10 -19 -10 -35 0 -16 -4 -31 -9 -34 -5 -3 -11 -20 -14 -38
-23 -132 -30 -165 -42 -178 -7 -8 -17 -42 -23 -75 -30 -162 -37 -196 -43 -190
-8 7 -15 -19 -25 -90 -3 -27 -10 -54 -14 -60 -4 -5 -11 -35 -15 -65 -4 -30
-13 -62 -20 -70 -7 -8 -16 -43 -20 -78 -4 -34 -11 -65 -16 -68 -5 -3 -9 -18
-9 -35 0 -16 -5 -29 -10 -29 -6 0 -9 -13 -8 -28 1 -15 -2 -34 -8 -42 -8 -13
-23 -79 -40 -177 -4 -18 -10 -33 -14 -33 -4 0 -10 -15 -13 -32 -17 -102 -29
-155 -37 -170 -6 -10 -10 -29 -10 -42 0 -14 -4 -27 -9 -30 -5 -3 -12 -22 -15
-41 -3 -19 -9 -51 -12 -70 -3 -19 -10 -32 -15 -29 -5 3 -6 -9 -3 -26 5 -21 2
-36 -9 -48 -8 -9 -18 -43 -22 -75 -4 -31 -11 -60 -16 -63 -5 -3 -9 -21 -9 -40
0 -22 -4 -33 -10 -29 -7 4 -9 -2 -4 -19 4 -16 1 -32 -6 -41 -11 -14 -30 -91
-46 -187 -4 -21 -10 -38 -14 -38 -8 0 -13 -21 -30 -120 -6 -36 -15 -73 -20
-82 -6 -10 -10 -29 -10 -42 0 -13 -4 -26 -9 -28 -5 -1 -12 -19 -14 -38 -3 -19
-6 -35 -7 -35 -2 0 -27 -116 -36 -172 -4 -18 -10 -33 -14 -33 -4 0 -10 -15
-13 -32 -17 -102 -29 -155 -37 -170 -6 -10 -10 -30 -11 -45 0 -25 -1 -26 -9
-7 -4 11 -11 46 -15 78 -4 31 -11 59 -15 61 -5 3 -12 35 -15 71 -5 39 -13 68
-21 71 -7 3 -15 31 -19 69 -4 35 -11 66 -15 69 -5 3 -11 32 -15 65 -4 33 -13
66 -20 73 -7 7 -15 40 -20 72 -4 33 -10 65 -15 70 -4 6 -10 25 -14 43 -3 17
-9 47 -12 65 -4 17 -10 34 -14 37 -6 5 -25 90 -37 173 -3 20 -9 37 -14 37 -5
0 -9 16 -9 35 0 19 -4 35 -9 35 -5 0 -12 28 -16 63 -4 34 -13 69 -21 78 -8 8
-17 43 -20 77 -4 34 -10 62 -15 62 -4 0 -11 29 -14 66 -4 36 -13 71 -20 77 -7
7 -15 26 -18 42 -3 17 -11 55 -17 85 -7 30 -16 79 -22 108 -5 29 -14 50 -19
47 -5 -4 -9 8 -9 25 0 16 -4 38 -9 48 -6 9 -17 57 -25 106 -8 49 -19 92 -24
95 -5 3 -12 22 -15 41 -4 19 -14 67 -23 105 -8 39 -19 88 -23 110 -5 22 -10
36 -11 30 -3 -12 -15 35 -30 120 -6 33 -17 71 -23 84 -6 13 -10 37 -8 53 1 18
-1 28 -7 24 -9 -5 -12 4 -28 97 -3 20 -10 40 -15 43 -5 3 -9 16 -9 30 0 13 -4
32 -10 42 -9 16 -25 95 -37 174 -3 21 -9 35 -14 32 -5 -3 -9 11 -9 30 l0 36
-220 0 -220 0 0 -1940z"/>
<path d="M33260 8850 l0 -1940 200 0 200 0 1 1153 c1 633 4 1139 6 1122 3 -16
9 -34 14 -39 5 -6 9 -23 9 -38 0 -15 4 -28 9 -28 5 0 11 -24 15 -52 7 -55 22
-110 37 -140 5 -10 9 -29 9 -42 0 -14 4 -27 9 -30 5 -4 12 -30 16 -59 4 -28
13 -61 20 -73 7 -11 16 -43 20 -70 4 -27 11 -53 15 -59 5 -5 11 -36 15 -68 4
-33 13 -61 20 -64 8 -2 16 -30 20 -64 4 -32 11 -61 15 -64 4 -3 11 -32 15 -66
4 -35 13 -63 20 -65 8 -3 16 -31 20 -65 4 -32 11 -61 15 -64 4 -3 11 -32 15
-65 4 -33 13 -67 21 -74 7 -8 17 -39 20 -70 4 -31 11 -59 15 -62 5 -3 9 -18 9
-34 0 -16 5 -32 10 -35 6 -3 10 -19 10 -36 0 -16 4 -29 9 -29 5 0 12 -27 16
-60 4 -33 11 -63 16 -66 5 -3 9 -18 9 -35 0 -16 5 -29 10 -29 6 0 10 -16 10
-35 0 -19 4 -35 9 -35 5 0 12 -27 16 -60 4 -33 12 -66 19 -73 13 -15 17 -27
23 -84 3 -24 9 -43 13 -43 5 0 11 -27 15 -60 4 -33 13 -67 21 -75 8 -7 14 -25
14 -39 l0 -26 220 0 c150 0 220 3 220 11 0 6 6 17 14 24 7 8 17 43 21 79 3 37
11 66 16 66 5 0 9 12 9 27 0 26 15 83 30 114 5 8 11 46 15 82 4 37 11 67 15
67 4 0 10 15 13 33 14 76 20 103 27 112 5 6 11 37 15 70 4 33 12 63 17 66 5 3
15 37 21 75 7 38 15 74 19 79 3 6 9 37 13 70 4 32 13 65 20 72 7 6 16 38 20
70 4 32 10 63 15 68 4 6 11 37 15 70 4 33 12 63 17 66 9 6 21 58 49 213 6 33
17 69 24 80 7 12 16 46 20 76 4 30 11 60 15 65 4 6 10 28 14 50 9 61 11 68 23
90 7 12 15 49 19 83 3 34 11 62 15 62 5 0 9 15 9 34 0 19 4 37 9 40 5 3 12 23
15 43 4 21 10 58 15 83 5 25 9 -451 10 -1097 l1 -1143 195 0 195 0 0 1940 0
1940 -189 0 -190 0 -6 -55 c-4 -30 -11 -58 -16 -61 -5 -3 -9 -21 -9 -40 0 -24
-4 -33 -12 -28 -8 5 -9 -2 -5 -23 3 -17 1 -35 -5 -41 -6 -6 -17 -44 -25 -84
-19 -100 -30 -145 -33 -133 -3 12 -18 -50 -31 -130 -5 -33 -14 -68 -19 -77 -6
-10 -10 -29 -10 -43 0 -14 -4 -25 -9 -25 -5 0 -11 -15 -14 -32 -17 -102 -29
-155 -37 -170 -6 -10 -10 -31 -10 -48 0 -16 -4 -30 -9 -30 -5 0 -12 -16 -15
-35 -3 -19 -9 -51 -12 -70 -3 -19 -9 -35 -13 -35 -4 0 -6 -13 -3 -28 2 -17 -2
-35 -10 -43 -13 -12 -24 -59 -45 -176 -3 -18 -9 -33 -14 -33 -5 0 -9 -13 -9
-29 0 -17 -4 -32 -9 -35 -5 -3 -12 -35 -16 -71 -3 -36 -11 -67 -16 -70 -5 -4
-9 -21 -9 -40 0 -18 -4 -35 -9 -37 -9 -3 -12 -15 -31 -123 -6 -33 -15 -68 -20
-77 -6 -10 -10 -29 -10 -42 0 -13 -4 -26 -10 -28 -5 -1 -19 -50 -31 -108 -11
-58 -23 -118 -26 -135 -3 -16 -12 -35 -19 -42 -7 -7 -16 -42 -19 -78 -4 -36
-11 -65 -15 -65 -4 0 -8 -10 -8 -22 0 -31 -14 -102 -21 -108 -9 -7 -31 -96
-31 -125 0 -14 -4 -25 -9 -25 -5 0 -11 -15 -14 -32 -3 -18 -10 -51 -17 -73
-13 -47 -17 -66 -26 -123 -4 -23 -11 -45 -15 -48 -5 -3 -9 -18 -9 -34 0 -16
-4 -31 -9 -34 -5 -3 -12 -31 -16 -62 -8 -68 -20 -57 -30 28 -4 32 -11 61 -16
64 -5 3 -9 18 -9 34 0 16 -4 31 -9 34 -5 3 -11 20 -14 38 -17 98 -29 155 -39
175 -6 12 -12 30 -13 40 -1 10 -4 25 -7 33 -8 20 -18 66 -25 113 -3 20 -9 37
-14 37 -5 0 -9 13 -9 29 0 17 -4 32 -9 36 -5 3 -13 34 -16 70 -4 36 -11 68
-16 71 -5 3 -9 21 -9 40 0 21 -4 33 -10 29 -6 -4 -10 7 -10 25 0 16 -4 38 -10
48 -5 9 -14 44 -20 77 -19 105 -27 140 -30 130 -4 -16 -22 66 -24 107 0 20 -4
34 -7 32 -4 -2 -10 12 -13 31 -3 19 -9 51 -12 70 -3 19 -10 35 -15 35 -5 0 -9
15 -9 34 0 19 -4 37 -9 40 -5 3 -12 32 -16 63 -3 32 -13 68 -21 80 -7 12 -11
28 -8 36 3 8 1 18 -5 22 -6 3 -11 21 -11 40 0 19 -4 36 -9 40 -5 3 -13 34 -16
69 -4 37 -13 67 -20 69 -7 3 -15 29 -19 59 -4 29 -11 67 -16 83 -5 17 -14 50
-20 75 -7 25 -17 55 -22 67 -6 12 -8 33 -6 47 3 14 2 23 -2 21 -7 -5 -10 7
-26 98 -3 20 -10 40 -15 43 -5 3 -9 16 -9 30 0 13 -4 32 -10 42 -9 16 -25 95
-37 174 -3 21 -9 35 -14 32 -5 -3 -9 11 -9 30 0 19 -4 37 -9 40 -5 3 -12 32
-16 63 -3 32 -13 69 -22 82 -8 12 -13 32 -10 42 3 10 1 19 -4 19 -5 0 -9 13
-9 29 0 17 -4 33 -10 36 -5 3 -10 22 -10 41 l0 34 -225 0 -225 0 0 -1940z"/>
<path d="M36799 10783 c-2 -9 -5 -37 -15 -110 -4 -29 -10 -53 -15 -53 -5 0 -9
-18 -9 -39 0 -22 -4 -43 -10 -46 -5 -3 -10 -24 -10 -45 0 -21 -5 -42 -10 -45
-6 -4 -10 -21 -10 -38 1 -48 -11 -127 -21 -133 -5 -3 -9 -22 -9 -43 0 -20 -4
-41 -9 -46 -5 -6 -12 -28 -15 -50 -3 -22 -11 -78 -17 -125 -7 -47 -18 -90 -25
-97 -6 -7 -15 -48 -19 -93 -4 -44 -10 -80 -15 -80 -4 0 -10 -34 -14 -76 -4
-42 -13 -82 -20 -90 -7 -7 -16 -49 -20 -93 -4 -44 -11 -83 -15 -86 -5 -2 -12
-42 -16 -87 -4 -46 -12 -86 -18 -90 -7 -4 -17 -45 -24 -90 -7 -46 -17 -117
-23 -158 -6 -41 -17 -86 -24 -100 -8 -14 -17 -60 -21 -102 -4 -43 -11 -78 -15
-78 -4 0 -10 -19 -14 -42 -10 -82 -18 -123 -26 -133 -4 -5 -11 -47 -15 -92 -4
-46 -11 -83 -16 -83 -5 0 -9 -17 -9 -38 0 -21 -4 -42 -9 -48 -5 -5 -12 -27
-15 -49 -3 -22 -11 -78 -17 -125 -7 -47 -17 -88 -22 -92 -10 -6 -23 -78 -49
-263 -6 -44 -17 -85 -23 -92 -7 -7 -16 -47 -20 -90 -4 -43 -11 -82 -15 -88 -4
-5 -11 -41 -15 -79 -4 -38 -13 -75 -20 -82 -7 -7 -16 -51 -20 -98 -4 -47 -11
-88 -15 -91 -5 -3 -12 -41 -16 -85 -3 -44 -11 -80 -15 -80 -5 0 -9 -7 -9 -15
0 -13 31 -15 218 -15 156 0 221 3 230 12 7 7 12 27 12 45 0 18 4 33 9 33 5 0
12 18 15 40 3 22 9 58 12 80 3 22 9 40 13 40 4 0 7 10 6 23 -1 12 2 29 6 38 5
9 10 31 11 48 1 17 5 31 9 31 4 0 9 17 12 38 8 53 17 94 27 117 5 11 11 36 12
55 l3 35 434 3 434 2 -6 -35 c-3 -20 -2 -33 3 -30 4 3 10 -10 13 -28 18 -105
29 -154 39 -172 12 -20 30 -96 50 -210 6 -33 18 -68 26 -77 10 -12 13 -29 9
-55 -5 -26 -3 -33 3 -23 6 10 10 11 10 3 0 -10 51 -13 220 -13 l220 0 0 49 c0
29 -5 53 -14 60 -8 7 -17 42 -21 84 -4 40 -11 77 -15 82 -4 6 -11 42 -15 80
-4 39 -12 76 -18 83 -9 12 -29 106 -44 217 -3 22 -9 44 -14 49 -5 6 -9 23 -9
38 0 16 -4 36 -10 46 -5 9 -14 51 -20 92 -6 41 -13 92 -17 113 -3 20 -9 40
-14 43 -5 3 -9 21 -9 40 0 19 -4 42 -10 52 -5 9 -14 49 -19 87 -5 39 -15 90
-21 115 -6 25 -14 61 -17 80 -3 19 -9 40 -14 45 -4 6 -11 46 -15 89 -4 42 -12
83 -19 90 -7 6 -17 45 -23 86 -29 194 -38 238 -49 251 -6 8 -14 46 -18 84 -4
39 -11 75 -15 80 -4 6 -11 45 -15 87 -5 48 -12 79 -20 82 -8 3 -16 34 -20 83
-4 43 -11 83 -15 88 -4 6 -11 41 -15 79 -4 39 -13 79 -20 90 -8 12 -17 54 -21
94 -3 40 -11 75 -15 78 -5 3 -9 23 -9 44 0 21 -4 42 -10 45 -5 3 -10 19 -10
36 0 16 -4 37 -10 47 -5 9 -14 51 -20 92 -6 41 -13 92 -17 113 -3 20 -9 40
-14 43 -5 3 -9 23 -9 44 0 21 -4 41 -9 44 -5 3 -12 39 -16 78 -4 40 -13 82
-20 94 -8 12 -17 53 -21 92 -3 40 -10 72 -14 72 -4 0 -11 36 -15 80 -4 47 -13
87 -21 95 -8 7 -14 21 -14 29 0 14 -28 16 -230 16 -126 0 -231 -3 -231 -7z
m257 -994 c8 -57 18 -123 21 -146 3 -24 9 -43 13 -43 4 0 10 -19 14 -42 17
-132 33 -216 44 -236 8 -14 10 -35 6 -59 -4 -24 -3 -34 4 -29 6 4 12 -12 15
-42 10 -89 34 -217 45 -242 10 -23 26 -114 39 -227 3 -24 9 -43 13 -43 4 0 10
-19 13 -42 3 -24 13 -86 22 -138 9 -52 18 -113 21 -135 4 -22 10 -44 15 -50 5
-5 9 -24 9 -42 0 -18 4 -41 9 -51 9 -16 26 -123 38 -234 3 -27 9 -45 14 -42 5
3 9 -4 9 -15 0 -20 -5 -21 -380 -23 -209 -2 -380 0 -380 5 0 4 5 7 10 7 6 0
10 20 10 44 0 25 4 47 9 50 4 3 11 36 14 73 4 37 10 79 13 93 4 14 9 46 11 72
3 27 9 45 14 42 5 -3 9 -2 9 3 1 4 8 53 16 108 8 55 20 138 26 185 6 47 15 88
21 92 6 3 16 48 23 100 32 240 38 273 47 279 5 4 15 49 21 100 6 52 14 99 17
104 4 6 10 43 13 83 4 39 13 84 21 98 7 15 17 64 20 110 4 46 11 82 15 79 5
-3 11 16 14 43 13 111 29 222 33 219 2 -2 10 -51 19 -108z"/>
<path d="M37790 10776 c0 -8 5 -18 10 -21 6 -3 10 -15 10 -26 0 -10 4 -19 10
-19 5 0 12 -16 16 -36 4 -19 13 -38 20 -41 7 -3 16 -20 20 -39 3 -19 10 -34
14 -34 4 0 11 -16 14 -36 4 -19 14 -38 22 -41 7 -3 14 -13 14 -22 0 -9 6 -25
14 -36 7 -11 17 -34 20 -52 4 -17 14 -37 22 -44 8 -6 14 -17 14 -23 0 -6 18
-47 40 -91 22 -44 40 -88 40 -97 0 -10 5 -18 10 -18 6 0 10 -6 10 -13 0 -18
24 -67 33 -67 4 0 7 -7 7 -16 0 -9 11 -37 24 -63 27 -50 50 -104 61 -138 3
-13 11 -23 16 -23 5 0 9 -5 9 -11 0 -6 6 -25 14 -42 7 -18 19 -47 26 -64 7
-18 16 -33 20 -33 5 0 11 -13 15 -30 4 -16 11 -32 16 -35 5 -4 9 -15 9 -26 0
-10 5 -19 11 -19 5 0 7 -5 4 -10 -3 -6 3 -22 14 -36 12 -15 21 -37 21 -50 0
-12 3 -24 8 -26 4 -1 17 -23 28 -48 12 -25 34 -70 48 -99 14 -30 26 -61 26
-68 0 -7 5 -13 10 -13 6 0 10 -6 10 -13 0 -7 11 -35 24 -63 32 -68 53 -115 61
-141 3 -13 10 -23 15 -23 5 0 11 -13 15 -30 4 -16 10 -30 15 -30 4 0 11 -16
14 -36 4 -19 14 -38 22 -41 12 -4 14 -135 14 -944 l0 -939 198 2 197 3 5 963
c4 692 8 965 16 970 12 7 29 51 26 65 -1 4 4 7 12 7 9 0 17 15 21 40 4 22 11
40 16 40 5 0 9 9 9 20 0 11 4 20 8 20 4 0 16 24 27 53 10 28 21 54 24 57 11 9
50 94 57 123 4 16 13 31 21 34 8 3 12 12 9 19 -3 8 -1 14 4 14 6 0 10 9 10 19
0 11 4 22 9 26 5 3 12 19 16 35 4 17 10 30 15 30 5 0 14 17 20 38 7 20 16 41
21 47 5 5 9 16 9 25 0 10 9 27 20 40 11 12 22 38 26 56 3 19 10 31 15 28 5 -3
9 3 9 13 0 10 11 39 25 65 14 26 25 54 25 62 0 8 3 16 8 18 10 4 50 87 58 121
3 15 10 27 15 27 5 0 9 6 9 13 0 6 11 34 25 61 14 27 25 58 25 68 0 10 5 17
11 16 6 -2 13 4 14 12 1 9 12 37 24 62 11 26 21 53 21 61 0 8 6 17 14 20 8 3
17 19 21 36 4 17 11 33 16 36 5 4 9 14 9 24 0 10 8 29 18 42 10 13 29 53 42
89 13 36 29 68 36 73 7 4 16 22 19 40 4 17 10 34 14 37 12 9 31 50 31 65 0 8
5 15 10 15 6 0 10 7 10 15 0 13 -31 15 -222 15 l-223 0 -12 -27 c-7 -15 -13
-33 -13 -41 0 -7 -4 -10 -10 -7 -5 3 -10 0 -10 -8 0 -8 -6 -27 -14 -43 -7 -16
-20 -44 -27 -61 -8 -18 -17 -33 -21 -33 -5 0 -8 -9 -8 -19 0 -11 -4 -22 -9
-26 -5 -3 -13 -20 -16 -38 -4 -17 -15 -43 -24 -57 -9 -14 -22 -36 -28 -50 -25
-57 -33 -76 -42 -90 -16 -25 -41 -82 -41 -94 0 -6 -9 -22 -20 -36 -11 -14 -20
-31 -20 -38 0 -15 -30 -84 -40 -92 -9 -8 -40 -76 -40 -89 0 -11 -20 -51 -30
-61 -12 -12 -28 -48 -35 -78 -3 -18 -11 -32 -16 -32 -5 0 -9 -9 -9 -20 0 -11
-4 -20 -8 -20 -5 0 -15 -18 -22 -40 -7 -21 -17 -37 -22 -34 -5 3 -8 0 -7 -7 4
-18 -11 -62 -23 -70 -5 -3 -11 -12 -12 -20 -2 -8 -8 -27 -15 -44 -7 -16 -12
-32 -12 -35 0 -3 -7 -12 -14 -20 -8 -9 -25 -45 -39 -80 -23 -63 -24 -64 -32
-35 -4 17 -10 32 -13 35 -10 8 -41 80 -41 94 0 8 -6 19 -14 26 -8 6 -12 19 -9
27 4 11 2 14 -5 9 -7 -4 -12 -1 -12 8 0 8 -20 55 -45 103 -25 48 -45 93 -45
100 0 7 -3 13 -7 13 -8 0 -33 48 -33 63 0 11 -32 80 -40 87 -5 5 -13 24 -52
118 -7 17 -16 32 -20 32 -5 0 -8 7 -8 15 0 8 -4 23 -10 33 -5 9 -17 35 -26 57
-10 22 -25 51 -34 65 -9 14 -22 44 -29 68 -6 23 -17 42 -22 42 -6 0 -9 7 -5
15 3 8 2 15 -2 15 -5 0 -15 17 -23 37 -8 20 -19 46 -26 57 -7 12 -17 32 -24
46 -6 14 -15 33 -20 42 -5 10 -9 25 -9 33 0 8 -3 15 -8 15 -4 0 -13 15 -21 33
-7 17 -20 45 -27 61 -8 16 -14 35 -14 43 0 7 -4 13 -9 13 -5 0 -11 9 -14 20
-5 19 -14 20 -226 20 -186 0 -221 -2 -221 -14z"/>
<path d="M40915 10777 c-33 -6 -62 -14 -65 -18 -3 -3 -24 -10 -48 -14 -24 -4
-46 -13 -49 -21 -3 -8 -10 -14 -16 -14 -12 0 -120 -50 -127 -59 -3 -4 -22 -17
-42 -30 -92 -55 -204 -171 -254 -261 -10 -19 -21 -37 -24 -40 -3 -3 -11 -18
-19 -35 -7 -16 -17 -37 -21 -46 -5 -9 -11 -38 -15 -65 -4 -27 -13 -63 -21 -81
-12 -27 -14 -215 -12 -1273 2 -888 6 -1243 14 -1248 6 -4 14 -34 18 -67 4 -33
11 -64 16 -69 6 -6 10 -18 10 -27 0 -10 3 -19 8 -21 4 -1 20 -29 37 -61 16
-32 40 -68 52 -79 13 -12 23 -25 23 -29 0 -17 133 -136 194 -173 17 -10 33
-22 36 -25 7 -10 76 -41 89 -41 6 0 11 -4 11 -10 0 -5 9 -10 20 -10 11 0 20
-4 20 -10 0 -5 9 -10 19 -10 11 0 22 -4 25 -9 4 -5 30 -12 59 -16 28 -4 55
-12 59 -18 10 -17 102 -26 273 -26 166 0 252 9 264 26 3 6 30 14 58 18 29 4
55 11 59 16 3 5 14 9 25 9 10 0 19 5 19 10 0 6 9 10 20 10 11 0 20 4 20 10 0
5 16 12 35 16 19 3 35 10 35 15 0 5 7 9 15 9 8 0 15 5 15 10 0 6 7 10 15 10 8
0 15 4 15 10 0 5 11 12 25 16 14 3 25 12 25 19 0 8 8 16 19 20 36 11 171 157
171 185 0 6 4 9 8 6 8 -4 62 101 62 120 0 3 6 12 14 20 8 8 17 40 21 71 4 32
11 69 16 83 6 15 8 506 6 1265 -3 1283 -6 1388 -44 1402 -7 3 -13 11 -13 19 0
8 -9 31 -20 51 -11 21 -20 43 -20 50 0 7 -6 16 -14 20 -7 4 -24 24 -37 43 -42
62 -171 180 -220 202 -16 7 -29 16 -29 21 0 9 -106 57 -127 57 -8 0 -12 4 -8
9 6 10 -54 31 -87 31 -10 0 -18 4 -18 8 0 28 -456 43 -595 19z m439 -381 c6
-8 33 -16 60 -20 28 -3 52 -10 55 -15 4 -4 18 -11 34 -15 15 -3 36 -14 47 -24
10 -9 44 -37 74 -62 31 -24 56 -49 56 -56 0 -6 9 -19 20 -29 11 -10 20 -26 20
-35 0 -9 6 -22 13 -28 9 -10 13 -276 14 -1250 2 -726 -1 -1231 -6 -1223 -6 8
-7 -4 -4 -33 4 -31 2 -46 -6 -46 -6 0 -11 -9 -11 -20 0 -11 -5 -20 -11 -20 -5
0 -7 -5 -4 -10 3 -6 -1 -13 -9 -16 -9 -3 -16 -12 -16 -20 0 -20 -86 -97 -136
-120 -24 -11 -41 -23 -38 -27 4 -4 -2 -7 -14 -7 -11 0 -23 -4 -27 -9 -3 -6
-27 -13 -52 -17 -26 -4 -54 -14 -62 -22 -10 -10 -28 -13 -58 -9 -24 2 -43 1
-43 -4 0 -5 -32 -9 -71 -9 -38 0 -68 4 -65 8 3 5 -17 7 -43 4 -33 -2 -52 1
-62 11 -8 8 -36 17 -62 21 -25 4 -49 11 -52 17 -4 5 -13 9 -21 9 -8 0 -24 9
-36 20 -12 11 -28 20 -35 20 -8 0 -11 4 -8 10 3 5 0 7 -7 5 -22 -9 -137 113
-130 138 1 4 -2 7 -6 7 -5 0 -15 19 -23 43 -21 62 -21 2509 0 2553 30 64 77
131 100 144 11 5 25 16 33 22 28 28 95 68 111 68 9 0 17 4 17 9 0 5 25 13 55
16 30 4 59 13 63 21 9 17 81 23 221 17 79 -3 118 -8 125 -17z"/>
<path d="M42600 8850 l0 -1940 200 0 200 0 0 665 0 665 222 0 c210 0 378 -14
378 -32 0 -4 9 -8 19 -8 25 0 121 -50 121 -63 0 -6 2 -8 5 -5 9 8 85 -63 85
-79 0 -7 4 -13 8 -13 13 0 52 -79 65 -130 7 -29 12 -214 14 -522 l3 -478 196
0 195 0 -3 543 c-2 391 -6 548 -15 558 -6 8 -15 34 -20 59 -5 25 -15 44 -21
42 -7 -1 -12 7 -12 17 0 11 -5 23 -11 26 -11 8 -33 55 -31 68 1 4 -5 7 -13 7
-8 0 -15 6 -15 13 0 15 -136 160 -162 173 -14 8 -7 19 47 75 35 37 76 86 91
110 16 24 33 47 39 51 5 4 10 11 11 15 0 4 10 29 22 55 12 26 22 52 22 59 0 6
7 17 15 23 29 22 37 217 32 777 -5 509 -11 623 -35 638 -5 3 -13 23 -17 44 -4
20 -11 37 -16 37 -4 0 -11 16 -15 35 -3 19 -10 35 -15 35 -5 0 -14 10 -20 23
-26 58 -32 66 -127 162 -70 71 -88 85 -102 85 -5 0 -10 4 -10 9 0 11 -87 61
-106 61 -8 0 -13 5 -11 11 1 7 -18 18 -43 25 -25 7 -70 20 -100 28 -47 13
-133 16 -562 16 l-508 0 0 -1940z m945 1546 c8 -7 34 -17 60 -20 25 -4 45 -11
45 -17 0 -5 6 -9 14 -9 17 0 83 -55 121 -101 26 -32 65 -107 65 -125 0 -7 4
-14 9 -14 20 0 24 -107 24 -620 0 -509 -4 -610 -24 -610 -5 0 -9 -5 -9 -10 0
-53 -115 -190 -176 -210 -19 -7 -32 -16 -29 -20 3 -5 -17 -12 -45 -16 -28 -4
-53 -11 -56 -15 -3 -5 -126 -9 -275 -9 l-269 0 0 905 0 905 266 0 c212 0 268
-3 279 -14z"/>
<path d="M44820 10500 l0 -290 109 0 109 0 -24 -50 c-13 -27 -24 -54 -24 -59
0 -5 -6 -11 -13 -14 -6 -2 -20 -28 -31 -56 -10 -28 -25 -55 -33 -60 -8 -4 -13
-17 -11 -27 3 -17 14 -19 126 -22 118 -3 122 -2 122 18 0 12 4 19 8 16 4 -2
13 10 20 27 17 42 45 101 52 107 3 3 18 30 33 60 l27 55 0 293 0 292 -235 0
-235 0 0 -290z"/>
<path d="M46335 10775 c-27 -7 -70 -19 -95 -26 -25 -6 -49 -17 -55 -23 -5 -6
-38 -24 -72 -40 -34 -16 -60 -33 -57 -38 3 -4 -1 -8 -8 -8 -8 0 -33 -17 -55
-37 -23 -21 -55 -49 -72 -63 -16 -14 -27 -28 -24 -32 2 -5 0 -8 -5 -8 -12 0
-88 -102 -97 -129 -3 -12 -11 -21 -16 -21 -5 0 -9 -9 -9 -20 0 -11 -4 -20 -8
-20 -10 0 -42 -93 -42 -121 0 -10 -4 -21 -10 -24 -5 -3 -10 -29 -10 -56 0 -31
-4 -48 -10 -44 -7 4 -10 -127 -10 -385 0 -229 4 -389 9 -386 5 3 11 -13 14
-37 7 -62 24 -122 46 -160 11 -19 25 -45 33 -58 34 -61 173 -218 193 -219 6 0
22 -11 37 -24 14 -14 29 -22 32 -19 3 4 6 2 6 -4 0 -6 25 -21 55 -34 30 -13
55 -27 55 -31 0 -5 8 -8 18 -8 10 0 22 -3 26 -7 7 -7 72 -26 136 -39 14 -3 34
-9 45 -14 11 -5 67 -11 125 -14 152 -8 230 -17 225 -26 -2 -4 6 -5 19 -3 13 3
30 -2 39 -11 8 -9 22 -16 29 -16 40 0 127 -69 198 -156 13 -16 15 -79 15 -432
0 -293 -3 -415 -11 -420 -6 -4 -15 -18 -19 -30 -8 -27 -19 -41 -89 -112 -47
-49 -96 -80 -123 -80 -8 0 -11 -4 -8 -10 3 -5 -2 -10 -12 -10 -11 0 -25 -6
-31 -12 -9 -9 -57 -13 -167 -13 -110 0 -158 4 -166 13 -7 6 -24 12 -38 12 -13
0 -21 3 -18 6 4 4 -17 19 -46 33 -66 33 -177 147 -177 182 0 9 -5 19 -10 21
-6 2 -15 32 -20 67 -5 35 -14 69 -19 74 -7 7 -11 85 -11 214 l0 203 -195 0
-195 0 0 -256 c0 -167 3 -253 10 -249 6 4 10 -7 10 -26 0 -18 4 -46 9 -63 5
-17 18 -59 28 -93 9 -34 20 -60 22 -57 2 2 12 -13 21 -34 23 -51 99 -151 153
-201 10 -9 36 -33 58 -53 22 -21 46 -38 54 -38 7 0 15 -4 17 -8 6 -14 64 -51
91 -57 15 -4 27 -11 27 -16 0 -5 7 -9 15 -9 8 0 24 -4 35 -10 11 -5 29 -14 39
-20 11 -5 43 -12 73 -16 29 -4 62 -13 73 -20 28 -20 298 -20 314 0 6 7 41 17
76 21 36 3 65 11 65 16 0 5 11 9 25 9 14 0 25 5 25 10 0 6 9 10 20 10 11 0 20
4 20 9 0 5 12 12 27 16 27 6 85 43 91 57 2 4 10 8 18 8 40 0 239 221 266 298
7 17 15 32 19 32 7 0 41 88 46 120 1 8 7 42 13 75 7 38 10 202 8 455 -4 408
-3 407 -45 510 -4 8 -7 18 -7 23 -1 4 -5 7 -9 6 -5 0 -18 17 -29 38 -11 21
-32 51 -47 66 -60 66 -127 127 -143 133 -10 3 -18 10 -18 15 0 5 -7 9 -15 9
-8 0 -15 5 -15 10 0 6 -7 10 -15 10 -8 0 -15 4 -15 9 0 5 -13 12 -30 16 -16 4
-30 10 -30 15 0 4 -15 13 -32 20 -18 6 -41 16 -50 21 -9 5 -35 11 -57 15 -22
3 -42 12 -45 19 -3 8 -32 16 -73 20 -37 4 -72 11 -78 15 -5 4 -62 10 -125 14
-73 4 -120 11 -130 20 -8 7 -36 17 -62 20 -27 4 -48 11 -48 17 0 5 -9 9 -20 9
-11 0 -28 9 -37 20 -10 11 -23 20 -29 20 -21 0 -104 90 -125 136 -19 43 -20
61 -17 447 l3 402 29 52 c44 80 163 193 204 193 7 0 12 4 12 10 0 5 22 12 50
16 27 4 55 13 61 20 16 20 215 20 222 0 3 -7 28 -16 56 -20 28 -4 51 -11 51
-16 0 -6 9 -10 20 -10 11 0 28 -9 37 -20 10 -11 23 -20 31 -20 7 0 15 -7 18
-15 4 -8 11 -15 18 -15 6 0 22 -16 36 -36 14 -19 30 -41 36 -48 23 -24 54
-105 54 -139 0 -18 7 -42 15 -53 11 -15 14 -61 15 -231 l0 -213 190 0 190 0
-1 258 c0 141 -4 277 -9 302 -15 80 -21 102 -35 137 -8 19 -14 40 -12 46 1 7
-4 11 -10 10 -7 -2 -13 3 -13 11 0 17 -49 106 -59 106 -4 0 -15 13 -24 30 -24
40 -125 142 -164 165 -18 11 -33 23 -33 27 0 9 -97 58 -116 58 -9 0 -13 4 -9
10 6 9 -50 29 -155 55 -74 19 -405 19 -475 0z"/>
<path d="M10156 5973 c-665 -1418 -1220 -2601 -1234 -2628 l-24 -50 608 -1295
c334 -712 621 -1317 637 -1345 171 -282 437 -468 766 -535 129 -26 517 -29
657 -5 250 44 479 166 649 346 117 123 202 273 247 434 l23 80 3 2602 2 2601
-556 1186 c-306 652 -560 1186 -563 1186 -4 0 -550 -1160 -1215 -2577z"/>
<path d="M18486 6052 c-5 -9 12 -64 32 -99 7 -12 12 -29 12 -38 0 -8 6 -18 14
-21 8 -3 18 -19 21 -36 4 -16 13 -41 21 -56 8 -15 14 -33 14 -40 0 -7 7 -15
15 -18 8 -4 15 -13 15 -21 0 -8 10 -35 22 -61 12 -26 23 -54 24 -62 2 -8 8
-16 13 -18 6 -2 11 -9 11 -16 0 -7 18 -48 40 -92 22 -43 40 -84 40 -91 0 -12
41 -95 51 -103 4 -3 10 -19 13 -37 4 -17 14 -37 22 -44 8 -6 14 -17 14 -23 1
-6 9 -29 20 -51 11 -22 19 -48 20 -58 0 -10 7 -20 15 -23 8 -4 15 -11 15 -18
0 -6 7 -24 15 -39 8 -16 19 -46 25 -68 6 -22 15 -37 19 -34 5 2 12 -11 15 -30
4 -19 11 -35 16 -35 6 0 10 -9 10 -19 0 -11 5 -23 10 -26 6 -4 8 -10 5 -15 -3
-4 2 -13 9 -20 8 -6 18 -26 22 -43 3 -18 9 -34 13 -37 12 -9 31 -50 31 -65 0
-8 4 -15 9 -15 5 0 12 -12 15 -26 9 -36 48 -118 58 -122 4 -2 8 -11 8 -21 0
-9 5 -22 12 -29 7 -7 9 -12 4 -12 -4 0 2 -12 13 -26 12 -15 21 -34 21 -43 0
-10 4 -21 9 -27 5 -5 14 -26 21 -46 6 -21 16 -38 21 -38 5 0 9 -6 9 -12 0 -7
6 -25 14 -40 8 -14 19 -42 26 -62 6 -20 16 -36 21 -36 5 0 9 -373 9 -940 l0
-940 189 0 c145 0 191 3 200 13 7 10 11 292 13 971 2 671 6 959 14 964 6 4 17
22 25 40 8 17 17 32 21 32 5 0 7 3 6 8 -3 14 14 62 23 62 5 0 9 11 9 25 0 14
3 25 8 25 4 0 16 21 26 48 10 26 26 55 34 65 8 9 11 17 7 17 -5 0 -4 5 3 12 7
7 12 20 12 30 0 10 4 18 10 18 5 0 12 15 16 34 3 19 12 37 19 40 8 3 17 21 21
40 3 20 10 36 14 36 4 0 11 15 14 34 4 19 13 37 21 40 8 3 15 13 15 23 1 10 9
36 20 58 11 22 19 45 20 51 0 7 7 14 15 18 8 3 15 13 15 23 0 10 15 48 34 85
18 37 37 80 41 95 3 15 10 30 13 33 11 8 52 91 52 105 0 8 7 21 16 29 8 9 16
25 17 36 1 11 4 20 7 20 3 0 14 24 25 53 10 28 24 55 31 60 7 4 16 23 20 42 3
19 10 35 14 35 4 0 11 15 14 34 4 19 13 39 21 46 7 6 17 25 20 41 4 16 10 29
15 29 4 0 11 16 14 35 4 19 11 35 16 35 6 0 15 20 22 45 7 25 15 45 19 45 7 0
20 43 18 57 0 3 6 10 14 15 9 4 19 23 22 41 4 17 10 34 14 37 11 9 51 92 51
106 0 12 -38 14 -225 14 -216 0 -225 -1 -225 -19 0 -11 -4 -23 -10 -26 -5 -3
-10 -15 -10 -26 0 -11 -4 -17 -10 -14 -5 3 -10 -1 -10 -10 0 -15 -3 -22 -33
-83 -9 -19 -17 -40 -17 -48 0 -8 -3 -14 -7 -14 -8 0 -33 -47 -33 -62 0 -16
-35 -88 -42 -88 -5 0 -8 -8 -8 -17 0 -10 -7 -27 -15 -37 -8 -11 -15 -28 -15
-38 0 -10 -4 -18 -8 -18 -9 0 -52 -89 -52 -109 0 -7 -5 -9 -12 -5 -7 4 -8 3
-4 -5 4 -6 3 -17 -2 -24 -5 -7 -20 -37 -33 -67 -13 -30 -25 -57 -28 -60 -11
-9 -31 -50 -31 -61 0 -15 -32 -83 -43 -90 -4 -3 -10 -12 -11 -20 -6 -28 -44
-118 -56 -129 -6 -6 -20 -37 -46 -100 -10 -25 -21 -47 -25 -50 -3 -3 -14 -27
-24 -55 -10 -27 -26 -61 -36 -75 -9 -14 -25 -50 -35 -80 -13 -39 -20 -49 -22
-33 -2 12 -10 27 -18 33 -8 7 -14 16 -14 20 0 4 -12 34 -27 66 -14 33 -25 66
-24 74 2 8 -1 12 -5 8 -7 -8 -44 64 -44 87 0 7 -7 15 -15 19 -9 3 -12 12 -8
22 4 12 3 15 -5 10 -8 -5 -12 0 -12 13 0 11 -4 23 -10 26 -5 3 -10 15 -10 26
0 10 -3 19 -8 19 -7 0 -29 45 -53 113 -7 20 -17 37 -21 37 -4 0 -8 9 -8 20 0
11 -4 20 -10 20 -5 0 -12 16 -16 35 -3 19 -10 38 -15 41 -5 3 -9 14 -9 25 0
11 -4 17 -10 14 -5 -3 -10 3 -10 14 0 12 -4 21 -10 21 -5 0 -10 7 -10 16 0 16
-29 84 -39 94 -9 7 -29 52 -37 80 -4 14 -15 36 -25 49 -11 13 -19 32 -19 42 0
10 -4 20 -9 23 -5 3 -12 18 -16 33 -3 16 -13 36 -22 45 -8 9 -12 22 -7 29 4 8
3 10 -4 5 -7 -4 -12 -2 -12 5 0 20 -43 109 -52 109 -4 0 -8 8 -8 18 0 9 -7 30
-15 46 -8 15 -15 35 -15 42 0 8 -3 14 -8 14 -4 0 -12 10 -17 23 -10 22 -13 22
-222 25 -116 1 -214 -1 -217 -6z"/>
<path d="M21637 6051 c-27 -4 -52 -12 -55 -18 -4 -7 -31 -15 -60 -19 -28 -3
-52 -10 -52 -15 0 -5 -9 -9 -19 -9 -11 0 -23 -4 -26 -10 -3 -5 -15 -10 -26
-10 -10 0 -19 -4 -19 -9 0 -5 -12 -12 -27 -16 -15 -3 -39 -15 -54 -26 -15 -10
-30 -19 -34 -19 -3 0 -13 -6 -20 -12 -8 -7 -26 -22 -41 -33 -69 -52 -187 -178
-206 -221 -6 -13 -14 -24 -18 -24 -3 0 -12 -16 -20 -35 -8 -19 -17 -35 -21
-35 -4 0 -10 -22 -14 -50 -4 -27 -10 -50 -15 -50 -4 0 -11 -19 -15 -42 -12
-68 -17 -2539 -5 -2568 5 -14 11 -42 12 -62 1 -20 6 -34 10 -32 4 3 8 -3 8
-13 0 -26 32 -113 42 -113 4 0 8 -5 8 -11 0 -10 53 -90 84 -126 53 -62 128
-128 191 -168 17 -10 35 -24 40 -30 6 -6 37 -22 70 -35 33 -13 65 -29 70 -36
10 -12 40 -20 175 -49 125 -27 491 -17 580 15 14 5 44 14 68 20 23 6 40 15 37
20 -4 6 0 10 7 10 20 0 138 52 134 59 -2 3 13 15 35 25 21 11 39 23 39 28 0 4
5 8 11 8 17 0 151 140 179 185 13 22 30 44 37 48 7 4 13 13 13 20 0 7 6 24 14
39 8 15 17 42 21 60 4 18 15 41 24 52 15 16 16 127 19 1270 2 688 0 1288 -3
1334 -4 45 -12 88 -19 95 -7 7 -16 30 -20 52 -4 21 -14 48 -22 59 -8 11 -14
28 -14 38 0 9 -6 21 -13 25 -8 4 -22 23 -32 41 -11 17 -23 32 -27 32 -4 0 -8
4 -8 9 0 14 -89 102 -143 141 -26 19 -60 45 -75 57 -15 13 -33 23 -39 23 -7 0
-13 4 -13 10 0 5 -16 12 -35 16 -19 3 -35 9 -35 13 0 3 -15 12 -32 19 -18 7
-40 17 -48 21 -9 5 -36 12 -60 16 -25 4 -53 14 -63 23 -15 13 -52 16 -225 18
-114 2 -229 -1 -255 -5z m288 -380 c3 -5 21 -7 40 -4 22 4 43 0 58 -9 12 -9
41 -19 65 -23 23 -4 44 -11 48 -16 3 -5 15 -9 26 -9 12 0 18 -3 15 -6 -4 -4
15 -17 42 -29 75 -35 171 -142 171 -191 0 -8 4 -14 9 -14 4 0 12 -19 17 -42 5
-24 8 -578 8 -1233 0 -655 -3 -1209 -8 -1232 -5 -24 -13 -43 -17 -43 -5 0 -9
-11 -9 -24 0 -13 -7 -29 -15 -36 -8 -7 -15 -17 -15 -23 0 -15 -92 -100 -123
-114 -15 -7 -27 -17 -27 -22 0 -6 -16 -13 -35 -17 -19 -3 -35 -10 -35 -15 0
-4 -21 -11 -47 -14 -27 -4 -54 -14 -61 -23 -19 -24 -335 -24 -354 0 -7 9 -34
19 -60 23 -26 3 -50 10 -53 16 -4 5 -15 9 -25 9 -11 0 -27 8 -37 19 -10 10
-28 22 -40 25 -13 4 -23 12 -23 17 0 5 -4 9 -9 9 -30 0 -114 115 -126 170 -4
19 -13 54 -21 78 -21 64 -21 2331 0 2394 8 24 18 59 21 80 4 20 15 45 26 57
10 11 19 24 19 28 1 20 70 83 120 109 30 16 57 31 60 34 15 15 54 30 92 36 23
4 49 14 57 22 9 9 29 13 58 10 23 -2 43 0 43 4 0 11 138 10 145 -1z"/>
<path d="M23260 4466 c0 -1053 3 -1597 10 -1601 6 -3 10 -23 10 -43 1 -50 17
-116 29 -120 6 -2 13 -20 17 -40 4 -20 10 -39 13 -42 4 -3 12 -16 19 -30 15
-28 29 -52 57 -95 26 -40 152 -165 190 -189 17 -11 34 -25 38 -33 4 -7 13 -13
19 -13 17 0 102 -44 111 -57 4 -6 26 -14 50 -18 23 -4 47 -11 52 -15 20 -14
156 -30 262 -30 113 0 273 18 273 30 0 4 21 11 46 15 25 3 48 13 51 21 3 8 9
14 14 14 21 0 128 54 123 62 -3 4 1 8 8 8 8 0 28 13 46 29 17 17 32 28 32 25
0 -7 74 69 123 127 26 31 47 61 47 68 0 6 4 11 9 11 5 0 12 13 16 29 3 16 12
32 20 34 7 3 16 21 20 39 4 18 11 38 15 43 5 6 11 32 15 59 4 27 14 61 21 75
12 22 14 298 14 1629 l0 1602 -200 0 -200 0 0 -1577 c0 -1023 -4 -1573 -10
-1563 -7 11 -10 4 -10 -28 0 -23 -4 -50 -10 -60 -5 -9 -17 -34 -26 -56 -19
-42 -125 -156 -146 -156 -8 0 -21 -9 -31 -20 -9 -11 -25 -20 -36 -20 -11 0
-21 -4 -23 -9 -1 -5 -37 -14 -78 -20 -41 -5 -76 -15 -78 -21 -5 -13 -79 -13
-84 0 -2 6 -33 15 -69 20 -36 5 -79 16 -95 25 -16 8 -35 15 -41 15 -7 0 -13 4
-13 9 0 5 -8 12 -18 16 -28 8 -114 98 -137 141 -11 22 -22 41 -25 44 -35 33
-35 17 -38 1663 l-2 1597 -200 0 -200 0 0 -1594z"/>
<path d="M25430 5865 l0 -195 330 0 330 0 0 -1746 c0 -960 2 -1750 5 -1755 4
-5 91 -9 196 -9 l189 0 0 1755 0 1755 330 0 330 0 0 195 0 195 -855 0 -855 0
0 -195z"/>
<path d="M27522 4113 l3 -1948 198 -3 197 -2 0 855 0 855 450 0 450 0 2 -852
3 -853 195 0 195 0 3 1948 2 1947 -200 0 -200 0 0 -915 0 -915 -450 0 -450 0
0 915 0 915 -200 0 -200 0 2 -1947z"/>
<path d="M31385 6053 c-22 -2 -47 -10 -55 -18 -8 -7 -36 -16 -63 -20 -26 -4
-50 -11 -53 -16 -3 -5 -14 -9 -25 -9 -10 0 -19 -4 -19 -10 0 -5 -9 -10 -20
-10 -11 0 -20 -4 -20 -10 0 -5 -4 -10 -10 -10 -17 0 -90 -34 -90 -42 0 -5 -5
-8 -10 -8 -6 0 -16 -5 -23 -10 -7 -6 -37 -30 -67 -53 -102 -79 -191 -183 -226
-264 -10 -24 -22 -43 -26 -43 -5 0 -8 -9 -8 -19 0 -11 -4 -22 -9 -25 -5 -3
-12 -27 -16 -53 -4 -26 -13 -56 -21 -67 -21 -30 -21 -2512 0 -2542 8 -11 17
-42 22 -69 4 -27 18 -68 31 -90 13 -22 30 -54 38 -71 8 -17 21 -36 29 -44 9
-7 16 -17 16 -22 0 -8 56 -73 111 -127 29 -29 68 -60 111 -88 24 -15 46 -32
49 -36 9 -12 108 -57 126 -57 8 0 12 -4 8 -9 -5 -10 54 -31 86 -31 8 0 19 -4
25 -9 44 -41 555 -42 609 0 6 4 27 10 48 14 20 4 41 13 45 20 4 6 33 24 65 39
31 14 57 31 57 36 0 5 8 11 18 14 31 10 172 142 172 162 0 5 12 20 25 33 14
13 25 29 25 37 0 8 5 14 10 14 6 0 10 7 10 15 0 8 4 15 9 15 10 0 61 122 61
147 0 8 8 22 18 29 15 11 17 38 21 263 l3 251 -198 -2 -199 -3 -5 -201 c-4
-167 -8 -205 -21 -220 -9 -11 -19 -30 -22 -44 -8 -32 -30 -63 -88 -119 -68
-67 -100 -91 -121 -91 -10 0 -18 -4 -18 -10 0 -5 -23 -12 -51 -16 -28 -4 -53
-13 -56 -20 -7 -20 -209 -20 -228 0 -8 7 -36 16 -64 20 -27 4 -62 13 -78 21
-15 8 -34 15 -41 15 -7 0 -15 6 -18 14 -3 8 -16 17 -30 20 -25 7 -70 42 -108
85 -11 13 -31 34 -43 48 -13 13 -23 29 -23 36 0 7 -8 24 -17 37 -17 24 -18
100 -18 1268 0 903 3 1245 11 1250 6 4 15 18 19 31 15 50 129 164 195 194 25
11 47 24 50 28 9 12 99 39 130 39 15 0 30 6 32 13 3 8 37 13 109 15 87 3 107
1 118 -12 8 -9 24 -16 37 -16 31 0 104 -30 128 -52 11 -10 24 -18 28 -18 5 0
31 -22 59 -50 27 -27 47 -50 44 -50 -3 0 3 -10 15 -22 11 -12 25 -39 30 -59 6
-21 16 -39 23 -42 9 -3 13 -57 17 -198 l5 -194 195 0 195 0 0 238 c0 216 -2
240 -17 251 -10 7 -18 20 -18 28 0 19 -45 133 -59 150 -6 7 -25 33 -41 58 -16
25 -39 56 -52 70 -13 13 -22 28 -21 32 2 4 -7 13 -20 19 -12 7 -36 27 -54 46
-18 18 -36 33 -40 33 -5 0 -23 13 -42 29 -19 17 -46 33 -60 36 -14 4 -28 10
-31 13 -11 15 -97 52 -135 58 -22 4 -45 14 -51 23 -10 13 -43 16 -205 17 -107
1 -212 0 -234 -3z"/>
<path d="M33635 6053 c-22 -2 -47 -10 -55 -18 -8 -7 -35 -16 -60 -20 -24 -4
-51 -11 -60 -15 -8 -5 -42 -20 -75 -35 -92 -41 -103 -47 -124 -67 -11 -10 -24
-18 -30 -18 -22 0 -231 -203 -231 -224 0 -7 -8 -21 -18 -32 -21 -23 -52 -86
-52 -107 0 -9 -4 -19 -10 -22 -5 -3 -10 -15 -10 -26 0 -10 -4 -19 -9 -19 -5 0
-12 -24 -17 -52 -4 -29 -8 -615 -8 -1303 0 -687 4 -1274 8 -1302 5 -29 12 -53
17 -53 5 0 9 -9 9 -20 0 -11 4 -28 9 -38 6 -9 22 -43 37 -74 14 -32 30 -58 35
-58 5 0 9 -6 9 -12 1 -28 171 -204 184 -191 3 4 6 1 6 -5 0 -6 13 -18 29 -27
16 -8 36 -21 44 -29 16 -17 119 -66 136 -66 6 0 11 -4 11 -10 0 -5 19 -14 43
-20 23 -6 51 -15 62 -20 71 -32 461 -42 585 -15 119 25 171 41 178 51 4 6 35
22 70 36 35 14 64 29 65 34 1 5 19 17 40 28 49 24 237 210 237 234 0 7 5 12
11 12 5 0 7 4 4 10 -3 6 -1 10 4 10 6 0 11 9 11 19 0 10 7 21 14 24 8 3 18 22
22 41 3 20 10 36 15 36 5 0 9 13 9 29 0 17 4 32 9 35 5 3 12 25 16 48 11 58
11 2519 1 2586 -5 28 -12 52 -17 52 -5 0 -9 11 -9 24 0 14 -4 27 -9 30 -4 3
-11 19 -14 35 -3 16 -12 35 -19 42 -7 8 -22 30 -33 50 -11 20 -29 49 -40 64
-32 44 -132 145 -144 145 -5 0 -15 9 -21 19 -5 11 -20 23 -32 27 -13 4 -25 10
-28 13 -12 16 -68 50 -93 56 -15 4 -27 11 -27 16 0 5 -7 9 -15 9 -8 0 -24 5
-35 10 -11 6 -28 14 -38 19 -10 5 -38 12 -62 16 -25 4 -53 14 -63 23 -15 13
-52 16 -225 18 -114 1 -225 0 -247 -3z m275 -381 c0 -5 19 -7 42 -5 25 2 50
-3 64 -12 13 -8 30 -15 38 -15 21 0 110 -31 116 -40 3 -4 24 -17 46 -28 89
-45 174 -154 174 -224 0 -15 7 -33 15 -42 13 -13 15 -161 15 -1215 0 -733 -4
-1201 -9 -1201 -5 0 -15 -26 -21 -57 -7 -32 -20 -69 -28 -83 -23 -36 -88 -100
-101 -100 -7 0 -10 -4 -7 -9 3 -5 -6 -14 -22 -20 -15 -7 -45 -22 -67 -35 -22
-13 -60 -27 -85 -31 -25 -4 -51 -14 -58 -23 -19 -24 -335 -24 -354 0 -7 8 -32
18 -54 22 -23 3 -54 13 -70 21 -16 8 -35 15 -42 15 -7 0 -15 7 -18 15 -4 8
-12 15 -19 15 -12 0 -28 12 -91 70 -17 15 -42 50 -54 76 -13 27 -28 52 -34 56
-8 5 -11 386 -11 1273 0 1196 1 1267 18 1276 9 6 17 18 17 29 0 10 7 25 15 34
8 8 15 19 15 24 0 15 101 101 140 120 19 9 37 18 40 21 13 15 53 31 92 37 24
4 50 13 59 21 9 7 33 13 52 11 20 -1 39 1 43 5 10 10 144 9 144 -1z"/>
<path d="M35237 6053 c-4 -3 -7 -719 -7 -1590 0 -1192 3 -1590 12 -1606 6 -12
11 -42 10 -67 -2 -33 0 -41 8 -30 7 12 10 8 10 -17 0 -17 4 -34 9 -37 5 -3 12
-21 15 -40 4 -19 13 -40 22 -47 8 -7 13 -18 10 -26 -3 -7 -2 -13 2 -13 5 0 18
-18 31 -40 12 -22 26 -40 31 -40 5 0 11 -8 14 -18 8 -24 143 -160 167 -167 10
-4 19 -11 19 -16 0 -5 7 -9 17 -9 9 0 13 -3 9 -7 -7 -8 98 -63 121 -63 8 0 12
-4 8 -10 -3 -5 14 -14 37 -20 24 -6 54 -15 68 -20 104 -39 450 -39 535 0 11 5
39 14 63 20 23 6 40 15 37 20 -4 6 1 10 9 10 9 0 33 9 53 20 21 11 43 20 50
20 7 0 16 6 20 13 4 8 22 22 38 33 60 38 215 206 215 233 0 6 7 11 16 11 8 0
13 4 9 9 -3 5 -1 12 5 16 5 3 10 15 10 26 0 10 4 19 9 19 5 0 13 14 16 32 4
17 13 38 21 45 7 8 16 40 20 73 4 33 11 63 15 66 5 3 9 715 9 1615 l0 1609
-200 0 -200 0 -3 -1572 c-3 -1593 -5 -1668 -39 -1689 -7 -5 -13 -12 -13 -16
-2 -23 -39 -73 -85 -113 -28 -25 -60 -53 -71 -63 -11 -10 -33 -20 -49 -24 -17
-3 -30 -9 -30 -14 0 -4 -26 -10 -57 -14 -32 -3 -71 -12 -86 -20 -36 -19 -68
-19 -104 0 -15 8 -54 17 -85 20 -32 4 -58 11 -58 16 0 5 -7 9 -16 9 -25 0
-116 63 -155 108 -59 67 -67 79 -74 111 -3 17 -11 33 -16 36 -5 4 -9 21 -9 40
0 19 -4 37 -10 40 -7 4 -10 540 -10 1576 l0 1569 -193 0 c-107 0 -197 -3 -200
-7z"/>
<path d="M37455 6048 c-3 -7 -4 -884 -3 -1948 l3 -1935 195 0 195 0 5 1405 c4
1171 7 1398 18 1360 7 -25 17 -54 22 -65 5 -11 14 -39 20 -62 6 -24 15 -43 20
-43 4 0 11 -18 15 -40 4 -22 10 -42 15 -45 5 -3 11 -23 15 -46 4 -22 13 -43
21 -46 8 -3 14 -14 14 -25 0 -18 18 -67 41 -110 5 -10 9 -27 9 -38 0 -11 4
-20 9 -20 5 0 12 -15 16 -32 3 -18 10 -43 16 -55 5 -13 13 -33 18 -45 5 -13
16 -39 25 -60 9 -20 16 -43 16 -52 0 -8 9 -30 20 -48 11 -18 20 -40 20 -49 0
-9 7 -30 15 -45 8 -16 15 -39 15 -52 0 -12 6 -25 14 -28 8 -3 17 -23 21 -45 4
-21 10 -39 15 -39 4 0 11 -21 15 -46 3 -25 12 -47 20 -50 7 -3 16 -28 20 -55
4 -27 10 -47 15 -44 4 3 11 -16 15 -41 3 -25 12 -47 20 -50 7 -3 16 -21 20
-41 3 -19 10 -43 15 -52 12 -22 22 -52 27 -76 2 -10 8 -22 14 -26 6 -3 13 -25
16 -48 3 -22 10 -41 14 -41 5 0 9 -7 9 -15 0 -8 4 -23 9 -33 19 -35 41 -90 41
-101 0 -7 9 -31 20 -53 11 -23 20 -52 20 -65 0 -14 4 -22 9 -19 5 4 12 -12 16
-34 4 -22 13 -46 20 -54 8 -7 17 -30 20 -50 4 -20 11 -36 15 -36 4 0 11 -20
14 -45 4 -25 14 -52 22 -60 8 -8 18 -31 21 -50 3 -19 9 -35 14 -35 4 0 11 -21
15 -46 3 -25 12 -48 19 -50 7 -3 16 -21 20 -41 3 -19 10 -43 15 -52 5 -9 14
-35 20 -59 6 -23 14 -41 18 -38 4 2 16 -26 27 -62 33 -119 21 -113 219 -110
l171 3 3 1948 2 1947 -195 0 -195 0 -2 -1352 c-3 -1125 -5 -1345 -16 -1308 -7
25 -17 55 -22 68 -6 12 -14 32 -20 45 -5 12 -17 47 -26 77 -10 30 -23 63 -30
74 -7 10 -10 25 -7 32 3 8 1 14 -4 14 -5 0 -16 23 -23 50 -7 28 -17 50 -22 50
-4 0 -8 9 -8 20 0 11 -4 28 -10 38 -5 9 -17 45 -27 80 -10 34 -21 62 -25 62
-4 0 -8 7 -8 15 0 8 -4 23 -10 33 -5 9 -17 45 -27 80 -10 34 -21 62 -25 62 -4
0 -8 9 -8 19 0 11 -4 22 -9 25 -5 3 -12 26 -15 51 -4 24 -11 47 -17 50 -5 4
-9 15 -9 26 0 10 -4 19 -10 19 -5 0 -10 11 -10 24 0 14 -4 27 -9 31 -6 3 -13
25 -17 50 -3 24 -12 49 -19 55 -8 6 -11 18 -8 26 3 8 0 14 -6 14 -6 0 -11 9
-11 19 0 11 -4 22 -9 25 -5 3 -12 26 -15 50 -4 24 -13 50 -21 56 -7 6 -17 26
-20 43 -3 18 -10 42 -16 55 -5 12 -14 34 -20 50 -6 15 -15 34 -19 43 -5 9 -12
33 -15 53 -4 20 -11 39 -16 42 -5 3 -9 16 -9 30 0 13 -4 24 -10 24 -5 0 -10 9
-10 19 0 11 -4 22 -9 25 -5 4 -12 25 -16 48 -4 23 -11 49 -15 58 -40 80 -52
112 -47 129 3 12 1 19 -4 15 -5 -3 -9 4 -9 14 0 11 -6 25 -14 31 -8 7 -17 28
-21 48 -3 19 -10 43 -15 52 -5 9 -14 35 -20 59 -6 23 -15 42 -20 42 -4 0 -11
18 -15 40 -4 22 -11 42 -15 45 -5 3 -12 26 -16 51 -3 25 -12 48 -19 50 -7 3
-16 25 -20 49 -3 25 -10 47 -16 50 -5 4 -9 15 -9 26 0 10 -4 19 -10 19 -5 0
-10 9 -10 20 0 11 -4 28 -9 38 -5 9 -12 25 -15 35 -5 15 -24 17 -221 17 -163
0 -217 -3 -220 -12z"/>
<path d="M40515 6053 c-22 -2 -47 -10 -55 -18 -8 -7 -36 -16 -63 -20 -26 -4
-50 -11 -53 -16 -3 -5 -14 -9 -25 -9 -10 0 -19 -4 -19 -10 0 -5 -9 -10 -20
-10 -11 0 -20 -4 -20 -10 0 -5 -4 -10 -10 -10 -17 0 -90 -34 -90 -42 0 -5 -7
-8 -15 -8 -8 0 -15 -4 -15 -8 0 -5 -8 -13 -19 -18 -49 -23 -158 -127 -218
-206 -52 -69 -109 -186 -118 -240 -4 -24 -14 -52 -21 -63 -12 -16 -14 -225
-14 -1270 0 -1133 2 -1253 16 -1274 11 -15 14 -33 10 -54 -4 -23 -3 -28 4 -17
7 11 10 7 10 -17 0 -18 5 -33 10 -33 6 0 10 -8 10 -18 0 -10 11 -33 25 -52 14
-19 25 -39 25 -45 0 -7 9 -20 20 -30 11 -10 20 -22 20 -27 0 -24 161 -179 230
-220 19 -12 39 -28 43 -35 4 -7 13 -13 20 -13 7 0 29 -9 50 -20 20 -11 43 -20
51 -20 8 0 16 -6 19 -14 3 -8 26 -18 51 -21 25 -4 46 -10 46 -14 0 -16 162
-31 321 -31 153 0 270 12 294 31 6 4 27 10 48 14 20 4 41 12 45 19 4 6 33 24
65 39 31 15 57 32 57 37 0 5 8 11 18 14 28 9 172 142 172 158 0 5 14 23 30 41
17 18 33 42 36 55 4 12 9 22 13 22 11 0 51 94 58 134 3 20 11 36 18 36 18 0
25 93 25 322 l0 198 -197 -2 -198 -3 -5 -185 c-4 -159 -8 -194 -28 -250 -13
-36 -32 -72 -43 -82 -10 -9 -19 -20 -19 -25 -1 -13 -42 -56 -80 -83 -19 -13
-41 -30 -48 -37 -7 -7 -22 -13 -32 -13 -10 0 -20 -5 -22 -11 -2 -6 -25 -13
-52 -16 -27 -3 -50 -12 -53 -19 -7 -20 -219 -20 -226 0 -3 7 -28 16 -60 19
-30 4 -67 14 -83 22 -16 8 -35 15 -42 15 -7 0 -15 6 -18 14 -3 8 -17 17 -31
21 -14 3 -38 19 -54 36 -15 16 -31 29 -36 29 -10 0 -63 71 -97 130 -21 35 -21
43 -21 1271 0 902 3 1240 11 1250 6 8 15 25 19 39 10 33 77 112 109 129 14 8
23 17 21 21 -3 4 21 21 53 36 31 16 59 32 62 35 9 12 100 39 130 39 15 0 30 6
32 13 3 8 37 13 110 15 86 3 108 1 121 -12 8 -9 25 -16 36 -16 22 0 103 -29
111 -41 3 -3 29 -21 58 -39 28 -17 52 -35 52 -39 0 -4 9 -17 20 -29 12 -12 18
-22 15 -22 -4 0 5 -14 19 -30 14 -17 31 -50 37 -73 6 -23 15 -50 20 -59 5 -10
9 -89 9 -175 0 -87 4 -164 8 -171 7 -9 53 -12 198 -10 l189 3 0 238 c0 207 -2
240 -16 250 -9 7 -19 28 -23 48 -7 41 -42 116 -62 137 -8 7 -14 18 -14 24 0
30 -210 248 -240 248 -5 0 -10 4 -10 8 0 5 -26 22 -57 38 -32 15 -59 32 -61
36 -2 4 -12 8 -22 8 -10 0 -21 4 -24 9 -4 5 -25 12 -49 16 -23 4 -50 14 -60
23 -15 14 -50 17 -210 18 -106 1 -210 0 -232 -3z"/>
<path d="M42040 4110 l0 -1950 189 0 c104 0 196 3 205 6 15 6 16 187 16 1950
l0 1944 -205 0 -205 0 0 -1950z"/>
<path d="M42947 6054 c-4 -4 -7 -879 -7 -1945 0 -1757 1 -1937 16 -1943 9 -3
301 -6 650 -6 l634 0 0 200 0 200 -447 0 -448 0 0 1747 0 1748 -196 3 c-107 1
-198 -1 -202 -4z"/>
</g>
</svg>
